<svg xmlns="http://www.w3.org/2000/svg" width="820" height="233" viewBox="0 0 820 233">
<rect width="100%" height="100%" fill="white"/>
<text x="16" y="28" font-size="16" font-weight="bold">Run coverage and failure modes</text>
<rect x="150" y="38" width="13" height="13" fill="#009E73"/>
<text x="168" y="49" font-size="11">solved</text>
<rect x="242" y="38" width="13" height="13" fill="#E69F00"/>
<text x="260" y="49" font-size="11">timeout</text>
<rect x="334" y="38" width="13" height="13" fill="#D55E00"/>
<text x="352" y="49" font-size="11">OOM</text>
<rect x="426" y="38" width="13" height="13" fill="#777777"/>
<text x="444" y="49" font-size="11">other</text>
<text x="140" y="89" text-anchor="end" font-size="12">caat-pso</text>
<rect x="150.00" y="70" width="525.02" height="25" fill="#009E73"><title>solved: 395/480</title></rect>
<text x="412.51" y="87" text-anchor="middle" font-size="10" fill="white">395</text>
<rect x="675.02" y="70" width="79.75" height="25" fill="#E69F00"><title>timeout: 60/480</title></rect>
<text x="714.90" y="87" text-anchor="middle" font-size="10" fill="white">60</text>
<rect x="754.77" y="70" width="33.23" height="25" fill="#D55E00"><title>OOM: 25/480</title></rect>
<text x="796" y="89" font-size="11">n=480</text>
<text x="140" y="143" text-anchor="end" font-size="12">cat-pso</text>
<rect x="150.00" y="124" width="544.96" height="25" fill="#009E73"><title>solved: 410/480</title></rect>
<text x="422.48" y="141" text-anchor="middle" font-size="10" fill="white">410</text>
<rect x="694.96" y="124" width="59.81" height="25" fill="#E69F00"><title>timeout: 45/480</title></rect>
<text x="724.86" y="141" text-anchor="middle" font-size="10" fill="white">45</text>
<rect x="754.77" y="124" width="33.23" height="25" fill="#D55E00"><title>OOM: 25/480</title></rect>
<text x="796" y="143" font-size="11">n=480</text>
<text x="469.0" y="215" text-anchor="middle" font-size="12">Fraction of repeated runs</text>
</svg>
